<svg xmlns="http://www.w3.org/2000/svg" xmlns:xlink="http://www.w3.org/1999/xlink" width="191" zoomAndPan="magnify" viewBox="0 0 143.25 46.499999" height="62" preserveAspectRatio="xMidYMid meet" version="1.0"><defs><clipPath id="cd0c727df0"><path d="M 0.390625 0 L 142.117188 0 L 142.117188 46.003906 L 0.390625 46.003906 Z M 0.390625 0 " clip-rule="nonzero"/></clipPath><clipPath id="225417cccb"><path d="M 0.390625 0 L 141.375 0 L 141.375 45.261719 L 0.390625 45.261719 Z M 0.390625 0 " clip-rule="nonzero"/></clipPath></defs><g clip-path="url(#cd0c727df0)"><path fill="#ffffff" d="M 0.390625 0 L 142.117188 0 L 142.117188 46.003906 L 0.390625 46.003906 Z M 0.390625 0 " fill-opacity="1" fill-rule="nonzero"/></g><g clip-path="url(#225417cccb)"><path fill="#cd9c4f" d="M 63.484375 38.855469 L 52.726562 45.355469 L 52.726562 36.492188 L 29.375 41.527344 L 29.375 34.828125 L 6.660156 37.210938 L 6.660156 31.464844 L 0.402344 31.832031 L 0.402344 13.535156 L 6.660156 13.882812 L 6.660156 8.140625 L 29.375 10.527344 L 29.375 3.828125 L 52.730469 8.863281 L 52.730469 0 L 63.488281 6.488281 C 65.738281 5.457031 68.25 4.890625 70.890625 4.890625 C 73.582031 4.890625 76.136719 5.476562 78.417969 6.550781 L 89.269531 0 L 89.269531 8.863281 L 112.636719 3.828125 L 112.636719 10.527344 L 135.339844 8.140625 L 135.339844 13.882812 L 141.597656 13.535156 L 141.597656 31.832031 L 135.339844 31.464844 L 135.339844 37.214844 L 112.636719 34.828125 L 112.636719 41.527344 L 89.269531 36.488281 L 89.269531 45.351562 L 78.417969 38.792969 C 76.136719 39.875 73.582031 40.464844 70.890625 40.464844 C 68.25 40.464844 65.734375 39.886719 63.484375 38.855469 Z M 70.890625 10.492188 C 77.621094 10.492188 83.066406 15.941406 83.066406 22.671875 C 83.066406 29.398438 77.617188 34.859375 70.890625 34.859375 C 64.160156 34.859375 58.714844 29.402344 58.714844 22.671875 C 58.714844 15.941406 64.160156 10.492188 70.890625 10.492188 Z M 70.890625 8.167969 C 74.898438 8.167969 78.523438 9.789062 81.144531 12.417969 C 83.773438 15.046875 85.402344 18.664062 85.402344 22.671875 C 85.402344 26.675781 83.773438 30.304688 81.144531 32.933594 C 78.523438 35.554688 74.898438 37.183594 70.890625 37.183594 C 66.882812 37.183594 63.265625 35.554688 60.625 32.933594 C 58.007812 30.304688 56.390625 26.675781 56.390625 22.671875 C 56.390625 18.664062 58.007812 15.046875 60.625 12.417969 C 63.265625 9.789062 66.882812 8.167969 70.890625 8.167969 Z M 80.363281 13.199219 C 77.933594 10.78125 74.589844 9.277344 70.886719 9.277344 C 67.1875 9.277344 63.839844 10.78125 61.410156 13.199219 C 58.980469 15.628906 57.488281 18.980469 57.488281 22.671875 C 57.488281 26.375 58.984375 29.726562 61.410156 32.148438 C 63.839844 34.578125 67.183594 36.070312 70.886719 36.070312 C 74.589844 36.070312 77.933594 34.578125 80.363281 32.148438 C 82.78125 29.730469 84.285156 26.378906 84.285156 22.671875 C 84.289062 18.980469 82.78125 15.628906 80.363281 13.199219 Z M 61.246094 7.71875 L 54.949219 3.925781 L 54.949219 9.347656 L 58.332031 10.0625 C 59.214844 9.191406 60.195312 8.402344 61.246094 7.71875 Z M 56.671875 11.976562 L 31.582031 6.558594 L 31.582031 10.753906 L 55.769531 13.3125 C 56.050781 12.851562 56.355469 12.410156 56.671875 11.976562 Z M 54.640625 15.414062 L 8.878906 10.589844 L 8.878906 14.019531 C 23.96875 14.878906 39.058594 15.742188 54.160156 16.617188 C 54.304688 16.203125 54.464844 15.804688 54.640625 15.414062 Z M 53.519531 18.792969 L 2.621094 15.867188 L 2.621094 29.488281 L 53.519531 26.5625 C 53.246094 25.3125 53.097656 24.007812 53.097656 22.671875 C 53.097656 21.339844 53.246094 20.03125 53.519531 18.792969 Z M 54.160156 28.738281 C 39.058594 29.601562 23.96875 30.464844 8.878906 31.335938 L 8.878906 34.757812 L 54.644531 29.941406 C 54.464844 29.550781 54.304688 29.148438 54.160156 28.738281 Z M 55.769531 32.050781 L 31.582031 34.585938 L 31.582031 38.78125 L 56.671875 33.375 C 56.355469 32.945312 56.050781 32.503906 55.769531 32.050781 Z M 58.332031 35.28125 L 54.949219 36.007812 L 54.949219 41.429688 L 61.246094 37.625 C 60.195312 36.941406 59.214844 36.164062 58.332031 35.28125 Z M 80.636719 7.792969 C 81.65625 8.46875 82.613281 9.234375 83.46875 10.097656 L 83.488281 10.117188 L 87.054688 9.347656 L 87.054688 3.925781 Z M 85.136719 12.007812 C 85.453125 12.441406 85.746094 12.882812 86.03125 13.324219 L 110.417969 10.757812 L 110.417969 6.5625 Z M 87.148438 15.425781 C 87.316406 15.828125 87.472656 16.226562 87.628906 16.625 C 102.792969 15.761719 117.957031 14.890625 133.128906 14.019531 L 133.128906 10.589844 Z M 88.25 18.800781 C 88.535156 20.050781 88.683594 21.347656 88.683594 22.671875 C 88.683594 24.007812 88.535156 25.300781 88.25 26.550781 L 139.386719 29.484375 L 139.386719 15.867188 Z M 87.628906 28.726562 C 87.472656 29.128906 87.316406 29.527344 87.148438 29.917969 L 133.132812 34.753906 L 133.132812 31.335938 C 117.957031 30.464844 102.796875 29.601562 87.628906 28.726562 Z M 86.03125 32.019531 C 85.746094 32.472656 85.453125 32.914062 85.136719 33.335938 L 110.417969 38.785156 L 110.417969 34.589844 Z M 83.488281 35.238281 L 83.46875 35.257812 C 82.613281 36.113281 81.65625 36.890625 80.636719 37.5625 L 87.050781 41.429688 L 87.050781 36.007812 Z M 81.898438 11.660156 C 79.082031 8.84375 75.191406 7.097656 70.890625 7.097656 C 66.589844 7.097656 62.699219 8.84375 59.882812 11.660156 C 57.0625 14.480469 55.304688 18.371094 55.304688 22.671875 C 55.304688 26.972656 57.0625 30.871094 59.882812 33.691406 C 62.699219 36.507812 66.589844 38.246094 70.890625 38.246094 C 75.191406 38.246094 79.082031 36.507812 81.898438 33.691406 C 84.71875 30.871094 86.460938 26.972656 86.460938 22.671875 C 86.460938 18.371094 84.71875 14.480469 81.898438 11.660156 Z M 81.898438 11.660156 " fill-opacity="1" fill-rule="nonzero"/><path fill="#cd9c4f" d="M 63.484375 38.855469 L 52.726562 45.355469 L 52.726562 36.492188 L 29.375 41.527344 L 29.375 34.828125 L 6.660156 37.210938 L 6.660156 31.464844 L 0.402344 31.832031 L 0.402344 13.535156 L 6.660156 13.882812 L 6.660156 8.140625 L 29.375 10.527344 L 29.375 3.828125 L 52.730469 8.863281 L 52.730469 0 L 63.488281 6.488281 C 65.738281 5.457031 68.25 4.890625 70.890625 4.890625 C 73.582031 4.890625 76.136719 5.476562 78.417969 6.550781 L 89.269531 0 L 89.269531 8.863281 L 112.636719 3.828125 L 112.636719 10.527344 L 135.339844 8.140625 L 135.339844 13.882812 L 141.597656 13.535156 L 141.597656 31.832031 L 135.339844 31.464844 L 135.339844 37.214844 L 112.636719 34.828125 L 112.636719 41.527344 L 89.269531 36.488281 L 89.269531 45.351562 L 78.417969 38.792969 C 76.136719 39.875 73.582031 40.464844 70.890625 40.464844 C 68.25 40.464844 65.734375 39.886719 63.484375 38.855469 Z M 70.890625 10.492188 C 77.621094 10.492188 83.066406 15.941406 83.066406 22.671875 C 83.066406 29.398438 77.617188 34.859375 70.890625 34.859375 C 64.160156 34.859375 58.714844 29.402344 58.714844 22.671875 C 58.714844 15.941406 64.160156 10.492188 70.890625 10.492188 Z M 70.890625 8.167969 C 74.898438 8.167969 78.523438 9.789062 81.144531 12.417969 C 83.773438 15.046875 85.402344 18.664062 85.402344 22.671875 C 85.402344 26.675781 83.773438 30.304688 81.144531 32.933594 C 78.523438 35.554688 74.898438 37.183594 70.890625 37.183594 C 66.882812 37.183594 63.265625 35.554688 60.625 32.933594 C 58.007812 30.304688 56.390625 26.675781 56.390625 22.671875 C 56.390625 18.664062 58.007812 15.046875 60.625 12.417969 C 63.265625 9.789062 66.882812 8.167969 70.890625 8.167969 Z M 80.363281 13.199219 C 77.933594 10.78125 74.589844 9.277344 70.886719 9.277344 C 67.1875 9.277344 63.839844 10.78125 61.410156 13.199219 C 58.980469 15.628906 57.488281 18.980469 57.488281 22.671875 C 57.488281 26.375 58.984375 29.726562 61.410156 32.148438 C 63.839844 34.578125 67.183594 36.070312 70.886719 36.070312 C 74.589844 36.070312 77.933594 34.578125 80.363281 32.148438 C 82.78125 29.730469 84.285156 26.378906 84.285156 22.671875 C 84.289062 18.980469 82.78125 15.628906 80.363281 13.199219 Z M 61.246094 7.71875 L 54.949219 3.925781 L 54.949219 9.347656 L 58.332031 10.0625 C 59.214844 9.191406 60.195312 8.402344 61.246094 7.71875 Z M 56.671875 11.976562 L 31.582031 6.558594 L 31.582031 10.753906 L 55.769531 13.3125 C 56.050781 12.851562 56.355469 12.410156 56.671875 11.976562 Z M 54.640625 15.414062 L 8.878906 10.589844 L 8.878906 14.019531 C 23.96875 14.878906 39.058594 15.742188 54.160156 16.617188 C 54.304688 16.203125 54.464844 15.804688 54.640625 15.414062 Z M 53.519531 18.792969 L 2.621094 15.867188 L 2.621094 29.488281 L 53.519531 26.5625 C 53.246094 25.3125 53.097656 24.007812 53.097656 22.671875 C 53.097656 21.339844 53.246094 20.03125 53.519531 18.792969 Z M 54.160156 28.738281 C 39.058594 29.601562 23.96875 30.464844 8.878906 31.335938 L 8.878906 34.757812 L 54.644531 29.941406 C 54.464844 29.550781 54.304688 29.148438 54.160156 28.738281 Z M 55.769531 32.050781 L 31.582031 34.585938 L 31.582031 38.78125 L 56.671875 33.375 C 56.355469 32.945312 56.050781 32.503906 55.769531 32.050781 Z M 58.332031 35.28125 L 54.949219 36.007812 L 54.949219 41.429688 L 61.246094 37.625 C 60.195312 36.941406 59.214844 36.164062 58.332031 35.28125 Z M 80.636719 7.792969 C 81.65625 8.46875 82.613281 9.234375 83.46875 10.097656 L 83.488281 10.117188 L 87.054688 9.347656 L 87.054688 3.925781 Z M 85.136719 12.007812 C 85.453125 12.441406 85.746094 12.882812 86.03125 13.324219 L 110.417969 10.757812 L 110.417969 6.5625 Z M 87.148438 15.425781 C 87.316406 15.828125 87.472656 16.226562 87.628906 16.625 C 102.792969 15.761719 117.957031 14.890625 133.128906 14.019531 L 133.128906 10.589844 Z M 88.25 18.800781 C 88.535156 20.050781 88.683594 21.347656 88.683594 22.671875 C 88.683594 24.007812 88.535156 25.300781 88.25 26.550781 L 139.386719 29.484375 L 139.386719 15.867188 Z M 87.628906 28.726562 C 87.472656 29.128906 87.316406 29.527344 87.148438 29.917969 L 133.132812 34.753906 L 133.132812 31.335938 C 117.957031 30.464844 102.796875 29.601562 87.628906 28.726562 Z M 86.03125 32.019531 C 85.746094 32.472656 85.453125 32.914062 85.136719 33.335938 L 110.417969 38.785156 L 110.417969 34.589844 Z M 83.488281 35.238281 L 83.46875 35.257812 C 82.613281 36.113281 81.65625 36.890625 80.636719 37.5625 L 87.050781 41.429688 L 87.050781 36.007812 Z M 81.898438 11.660156 C 79.082031 8.84375 75.191406 7.097656 70.890625 7.097656 C 66.589844 7.097656 62.699219 8.84375 59.882812 11.660156 C 57.0625 14.480469 55.304688 18.371094 55.304688 22.671875 C 55.304688 26.972656 57.0625 30.871094 59.882812 33.691406 C 62.699219 36.507812 66.589844 38.246094 70.890625 38.246094 C 75.191406 38.246094 79.082031 36.507812 81.898438 33.691406 C 84.71875 30.871094 86.460938 26.972656 86.460938 22.671875 C 86.460938 18.371094 84.71875 14.480469 81.898438 11.660156 Z M 81.898438 11.660156 " fill-opacity="1" fill-rule="nonzero"/></g></svg>